PathFileType	4	(X/Y/Z)	s08c0302.trc
DataRate	CameraRate	NumFrames	NumMarkers	Units	OrigDataRate	OrigDataStartFrame	OrigNumFrames
200	200	4	50	mm	200	1500	2000
Frame#	Time	racr			lacr			c7			jug			rlel			rdr			llel			ldr			s2			lic			ric			lasi			rasi			rpsi			lpsi			rgt			lgt			rth1			rth2			rth3			rth4			rlfc			rmfc			rsh1			rsh2			rsh3			rsh4			rlmal			rmmal			rcal			rtoe			rmt5			lth1			lth2			lth4			lth3			llfc			lmfc			llmal			lmmal			lcal			lmt5			lsh1			lsh2			lsh3			lsh4			ltoe			SBIKE			LBIKE			RBIKE			
		X1	Y1	Z1	X2	Y2	Z2	X3	Y3	Z3	X4	Y4	Z4	X5	Y5	Z5	X6	Y6	Z6	X7	Y7	Z7	X8	Y8	Z8	X9	Y9	Z9	X10	Y10	Z10	X11	Y11	Z11	X12	Y12	Z12	X13	Y13	Z13	X14	Y14	Z14	X15	Y15	Z15	X16	Y16	Z16	X17	Y17	Z17	X18	Y18	Z18	X19	Y19	Z19	X20	Y20	Z20	X21	Y21	Z21	X22	Y22	Z22	X23	Y23	Z23	X24	Y24	Z24	X25	Y25	Z25	X26	Y26	Z26	X27	Y27	Z27	X28	Y28	Z28	X29	Y29	Z29	X30	Y30	Z30	X31	Y31	Z31	X32	Y32	Z32	X33	Y33	Z33	X34	Y34	Z34	X35	Y35	Z35	X36	Y36	Z36	X37	Y37	Z37	X38	Y38	Z38	X39	Y39	Z39	X40	Y40	Z40	X41	Y41	Z41	X42	Y42	Z42	X43	Y43	Z43	X44	Y44	Z44	X45	Y45	Z45	X46	Y46	Z46	X47	Y47	Z47	X48	Y48	Z48	X49	Y49	Z49	X50	Y50	Z50	
1500	7.5000	830.997303	1436.184115	-122.385142	857.500368	1341.039941	-433.616263	824.460054	1445.449231	-288.191905	764.714400	1297.266614	-248.261889	774.743053	1180.741327	-3.603913	807.402135	885.631469	-57.886890	692.117462	1125.452981	-535.972059	799.647753	900.013605	-433.280205	259.198671	1247.814435	-206.947348	410.639140	1195.282024	-366.616025	438.590084	1269.758317	-64.249394	429.815714	1149.192939	-322.548032	447.723993	1195.857537	-89.843424	299.370855	1291.266420	-166.283930	293.426535	1276.913194	-260.802301	352.888413	1154.884703	-4.068504	325.285223	1089.412072	-371.321587	464.155700	1009.835030	-10.372813	531.829691	953.504336	-24.165901	560.270263	872.390244	-38.181951	558.978978	975.038366	-38.648369	602.409798	773.973176	-66.566002	576.058859	775.685018	-175.311781	480.724481	730.294216	-34.935607	418.509295	667.633029	-52.706903	335.228471	645.070534	-55.238878	436.683822	644.971827	-82.219832	226.398205	594.945768	-59.367392	254.155503	593.508603	-147.212903	165.134413	645.956606	-106.595633	293.574852	375.086178	-109.394656	228.176764	441.834056	-40.633906	354.579250	961.077158	-386.710498	393.607628	883.171095	-386.806043	428.570818	889.976795	-378.938170	387.657050	794.142122	-386.663439	400.453982	671.402066	-371.882263	391.244148	644.396287	-272.564203	267.898576	274.912189	-393.649956	316.062142	295.719628	-324.295974	203.153143	269.545861	-355.476523	382.776571	154.478970	-420.020985	353.266658	551.123889	-404.529513	351.088762	465.873935	-392.747268	307.356525	389.388922	-396.231988	373.565584	461.272746	-359.435643	472.011365	162.205199	-354.408923	-145.704439	936.097147	-225.783064	9.216771	79.845245	-424.979558	9.331748	80.177342	-27.102558	
1501	7.5050	830.035350	1436.976734	-117.953034	859.830816	1343.521055	-431.633235	824.784450	1446.612215	-284.394373	766.131126	1297.743255	-245.313663	773.440253	1180.438517	-2.121618	807.440812	885.966779	-57.807762	695.648753	1126.274826	-534.383876	800.125784	898.706953	-432.727753	258.893760	1245.201649	-212.631820	415.052940	1191.306296	-367.445455	434.533208	1270.189603	-66.138157	432.215802	1145.075098	-322.804375	445.271577	1196.299503	-90.617465	297.810611	1288.914425	-171.859204	294.156407	1273.958388	-266.115025	349.503953	1155.536732	-6.867993	327.437526	1086.563777	-373.584322	463.823706	1012.558703	-10.921797	533.142569	958.120172	-23.997216	563.806236	877.731085	-37.086657	559.664737	980.142240	-38.693623	608.843569	780.534353	-65.936019	583.768947	781.769280	-175.182162	487.504617	736.882370	-35.280293	425.452774	673.937776	-53.009763	342.176021	651.341599	-55.946706	443.064235	651.642183	-81.761155	233.805770	600.736590	-60.638634	261.842248	599.505023	-148.280966	171.593222	650.698423	-107.925124	304.386242	382.105028	-109.248124	237.738502	447.943638	-41.022291	353.742409	958.849993	-388.533303	390.780382	879.906504	-388.342192	425.751904	885.754443	-379.625019	382.667977	791.122715	-388.737995	391.598927	667.514691	-373.438298	381.623867	640.702693	-274.276101	259.812910	270.777358	-394.377664	307.927161	291.745657	-325.012392	195.612566	266.602162	-356.156244	373.627615	148.723418	-419.865594	344.235525	547.392382	-406.190937	342.391809	461.982295	-394.313589	298.906085	385.433859	-397.551831	364.874092	457.578535	-361.022769	462.875111	155.370477	-354.344890	-145.748723	936.097437	-225.895651	9.214033	79.845080	-425.000417	9.343331	80.225822	-27.089274	
1502	7.5100	829.116976	1437.669559	-113.336584	861.312260	1344.825034	-425.221445	825.103131	1447.948485	-280.381839	765.943034	1299.002502	-242.275374	772.001126	1180.217196	0.240264	807.409928	886.368382	-57.727557	699.157875	1127.172300	-532.772608	800.644257	897.535342	-432.105185	258.750447	1242.752270	-218.380800	419.328004	1187.774225	-368.224007	430.571803	1270.642590	-68.266511	434.845435	1141.168451	-323.206820	442.736570	1196.824438	-91.706266	295.714160	1288.596381	-176.398738	295.061635	1271.025596	-271.526127	346.135394	1156.511209	-9.394419	329.432901	1084.225659	-375.930285	463.782985	1015.749491	-11.985950	534.480979	963.108940	-23.997327	567.684352	883.375767	-37.489360	560.426713	985.711463	-38.685134	615.022044	787.166603	-65.154898	591.099432	787.836032	-174.697356	494.277649	743.180121	-35.410537	432.048913	680.143641	-53.497846	349.271000	657.250219	-56.531206	449.869877	657.519277	-81.958304	241.229929	605.862634	-61.671581	269.005551	605.306614	-149.519396	178.061755	654.797241	-109.002827	315.054091	388.264665	-110.038180	247.609262	453.368459	-41.393181	352.877431	956.882455	-390.586958	387.975876	876.962144	-390.198343	422.890566	881.930153	-380.667293	377.703525	788.359508	-391.214256	382.804879	664.304080	-375.303793	372.380129	637.858794	-276.265493	251.659020	267.323445	-395.281495	300.426574	288.441381	-326.361837	187.999274	264.441678	-357.093007	364.261382	143.474446	-419.752294	335.503683	544.181277	-408.071837	333.562277	458.863488	-396.108008	290.339750	382.078118	-399.109436	356.080045	454.479136	-362.684433	453.476033	149.089318	-353.907570	-145.799210	936.105334	-226.018294	9.203324	79.816054	-425.045163	9.397539	80.268661	-27.089247	
1503	7.5150	828.256126	1438.221851	-108.797514	862.895238	1346.915722	-420.969720	825.319916	1449.209000	-276.067742	766.470355	1299.856462	-238.987667	770.087875	1179.992351	2.796032	805.936202	886.789327	-59.641529	702.628603	1128.140866	-531.141016	801.157294	896.372228	-431.281626	258.687576	1240.856622	-223.994541	423.509700	1184.874705	-368.798038	426.897179	1271.881796	-69.911962	437.372457	1137.798453	-324.137476	440.374021	1197.526514	-92.896370	294.817071	1286.480021	-181.629574	296.197795	1268.250419	-276.964100	343.112796	1157.628975	-12.041539	331.266928	1082.310702	-378.356848	463.740669	1019.425017	-13.117023	535.821380	968.558381	-24.214169	571.183369	889.647936	-36.129097	561.403549	991.585398	-38.429970	620.697026	793.778833	-63.805424	598.180424	794.853378	-175.109361	500.747394	749.101030	-35.232151	439.047142	685.836979	-53.566911	356.316012	662.729108	-56.803565	457.114294	663.071415	-81.668604	248.694257	610.267599	-62.528412	276.692991	610.131763	-150.248594	184.490055	658.163962	-109.805019	326.050021	394.246246	-110.390940	257.633201	458.225282	-41.783219	352.036182	955.249506	-392.951443	385.226502	874.460888	-392.343848	420.023525	878.526063	-381.941804	372.788341	786.347119	-394.064176	374.211535	661.653923	-377.364988	362.640411	635.829771	-278.395714	243.442413	264.598424	-396.387154	291.858685	285.754688	-327.279469	180.327223	263.083027	-358.142564	354.832764	138.940138	-419.627566	326.350502	541.572471	-410.151666	324.821928	456.300956	-398.123937	281.666306	379.420000	-400.871126	347.458586	451.956192	-364.736509	443.866329	143.327699	-353.443245	-145.865218	936.112617	-226.163583	9.199772	79.789177	-425.053303	9.399462	80.302835	-27.090883	
